HIERARCHY
ROOT Hips
{
  OFFSET 0 0 0
  CHANNELS 6 Xposition Yposition Zposition Zrotation Yrotation Xrotation
  JOINT LeftThigh
  {
    OFFSET 8.409438 0 -5.917753
    CHANNELS 3 Zrotation Yrotation Xrotation
    JOINT LeftLeg
    {
      OFFSET 0 0 -42.358652
      CHANNELS 3 Zrotation Yrotation Xrotation
      JOINT LeftFoot
      {
        OFFSET 0 0 -39.357303
        CHANNELS 3 Zrotation Yrotation Xrotation
      }
    }
  }
  JOINT RightThigh
  {
    OFFSET -8.409438 0 -5.917753
    CHANNELS 3 Zrotation Yrotation Xrotation
    JOINT RightLeg
    {
      OFFSET 0 0 -42.358652
      CHANNELS 3 Zrotation Yrotation Xrotation
      JOINT RightFoot
      {
        OFFSET 0 0 -39.357303
        CHANNELS 3 Zrotation Yrotation Xrotation
      }
    }
  }
  JOINT SpineLow
  {
    OFFSET 0 0 4.719101
    CHANNELS 3 Zrotation Yrotation Xrotation
    JOINT SpineMid
    {
      OFFSET 0 0 12.899191
      CHANNELS 3 Zrotation Yrotation Xrotation
      JOINT Chest
      {
        OFFSET 0 0 12.899191
        CHANNELS 3 Zrotation Yrotation Xrotation
        JOINT LeftShoulder
        {
          OFFSET 7.550562 1.41573 9.438202
          CHANNELS 3 Zrotation Yrotation Xrotation
          JOINT LeftArm
          {
            OFFSET 9.155056 0 4.247191
            CHANNELS 3 Zrotation Yrotation Xrotation
            JOINT LeftForearm
            {
              OFFSET 0 0 25.771955
              CHANNELS 3 Zrotation Yrotation Xrotation
              JOINT LeftHand
              {
                OFFSET 0 0 25.197169
                CHANNELS 3 Zrotation Yrotation Xrotation
              }
            }
          }
        }
        JOINT RightShoulder
        {
          OFFSET -7.550562 1.41573 9.438202
          CHANNELS 3 Zrotation Yrotation Xrotation
          JOINT RightArm
          {
            OFFSET -9.155056 0 4.247191
            CHANNELS 3 Zrotation Yrotation Xrotation
            JOINT RightForearm
            {
              OFFSET 0 0 -25.771955
              CHANNELS 3 Zrotation Yrotation Xrotation
              JOINT RightHand
              {
                OFFSET 0 0 -25.197169
                CHANNELS 3 Zrotation Yrotation Xrotation
              }
            }
          }
        }
        JOINT Neck
        {
          OFFSET 0 0 15.101124
          CHANNELS 3 Zrotation Yrotation Xrotation
          JOINT Head
          {
            OFFSET 0 0 11.325843
            CHANNELS 3 Zrotation Yrotation Xrotation
            End Site
            {
              OFFSET 0 0 14.157303
            }
          }
        }
      }
    }
  }
}
MOTION
Frames: 14
Frame Time: 0.0
0.0  101.685394  0.0  5.217366  12.480673  -112.154424  26.789007  -16.230522  -90.22595  34.575632  40.822753  108.188261  -15.149922  -8.448022  -3.699769  -30.213214  6.016536  -13.622383  13.490329  6.593337  34.793744  29.538542  4.11913  9.883451  -8.549687  1.861829  2.553055  -23.199221  5.906231  6.239728  -23.199221  5.906231  6.239727  13.979155  33.479277  20.942832  179.670582  49.837445  -140.727245  -67.678734  -41.738103  110.26492  68.022039  10.020828  -8.061454  47.419303  0.995153  44.671038  114.185478  49.589487  22.164502  -18.002656  27.162797  -75.520916  61.962326  -8.306031  55.747227  12.820069  2.285989  -3.768397  9.628301  1.636361  -2.875409  
0.0  101.685394  0.0  5.612073  12.251552  -111.995034  27.109229  -17.562058  -90.424921  36.977749  40.941798  107.718095  -15.632192  -8.604929  -3.258286  -30.389599  6.076731  -14.215409  13.646302  6.453328  35.291848  29.670588  4.322413  9.987115  -8.507374  1.891605  2.400019  -23.096288  5.930106  5.820215  -23.096291  5.930106  5.820215  15.529404  33.454387  21.393552  -177.436262  50.333184  -140.333619  -65.864984  -40.784093  110.942343  67.348287  8.489003  -7.037346  47.25931  0.471525  45.365744  110.745677  48.794886  20.278646  -18.418122  33.710559  -77.364366  59.637497  -6.368633  55.673645  13.170108  2.291998  -2.801528  9.887013  1.659576  -2.151478  
0.0  101.685394  0.0  5.889067  12.011011  -111.761331  27.930845  -18.368339  -89.671191  38.647714  41.67288  107.977335  -15.681771  -8.853684  -3.495129  -30.577132  5.992496  -14.885851  13.771155  6.272533  35.769428  29.934131  4.520432  10.17309  -8.197505  1.923008  2.468648  -22.239603  6.01271  6.02593  -22.239603  6.01271  6.02593  14.174987  32.469311  20.284474  -177.525342  51.087291  -141.594649  -65.705584  -38.956362  112.329956  67.937178  8.84804  -6.182835  45.566531  0.331106  44.891708  110.840782  49.006735  20.799043  -19.651237  34.103573  -79.2784  59.675629  -5.381695  55.002128  12.656435  2.067422  -2.36409  9.499459  1.502393  -1.816639  
0.0  101.685394  0.0  5.671306  12.103446  -111.02869  28.569691  -17.793867  -89.053357  38.684273  43.302514  108.510582  -14.675088  -8.709336  -3.859905  -31.060535  5.380112  -15.825572  13.560082  6.274337  36.107315  30.192905  4.588549  10.194498  -7.776603  1.86674  2.590279  -21.078712  5.863869  6.414346  -21.078712  5.863869  6.414347  11.028139  30.648811  18.376859  -178.995005  52.325682  -143.884749  -65.928212  -37.857986  112.868382  68.088929  9.337  -6.134508  42.770955  0.060192  43.684613  114.4723  49.625349  23.662273  -21.298514  30.676689  -81.077605  60.601952  -4.765955  55.041583  11.512794  1.645394  -2.197749  8.640049  1.193159  -1.679914  
0.0  101.685394  0.0  5.088795  12.348325  -110.865963  28.673261  -16.603745  -87.642595  37.242361  44.584094  109.050183  -13.843338  -8.498435  -4.240024  -31.512268  4.880493  -16.036281  14.334519  5.688624  36.974999  29.162608  4.665382  9.565555  -7.463154  1.748788  2.616193  -20.225815  5.524808  6.549701  -20.225816  5.524808  6.549701  9.05815  29.444948  17.922893  179.262966  53.836813  -146.314879  -66.625377  -38.049426  112.910391  67.041268  8.676069  -6.35027  40.455405  -0.277305  43.560843  118.98563  50.045501  26.879674  -23.87222  26.521502  -81.860377  62.890748  -4.904882  54.370581  10.634424  1.472195  -1.559871  7.979197  1.077396  -1.195895  
0.0  101.685394  0.0  4.492066  12.617564  -110.602225  28.083059  -16.162594  -86.138301  36.413629  44.256696  109.52333  -13.883274  -8.503513  -4.359764  -31.713489  4.41132  -16.170668  13.710536  5.753281  36.865361  29.43223  4.509362  9.562378  -7.406616  1.638524  2.363508  -20.099699  5.145817  5.902379  -20.0997  5.145817  5.902379  9.587714  28.908694  19.408339  177.507678  55.15017  -148.337518  -67.372796  -38.703706  112.917577  65.941287  7.817161  -6.519231  39.66087  -0.933704  44.736728  122.391916  50.450624  29.299045  -26.415881  23.965229  -82.387398  64.728529  -5.314466  53.170528  10.625142  1.414532  -0.290482  7.969126  1.056227  -0.242538  
0.0  101.685394  0.0  4.039162  12.899685  -110.243469  27.242222  -15.969703  -84.371442  35.664643  43.370806  110.060034  -14.157667  -8.394656  -4.427714  -31.574673  4.103271  -16.380277  13.053447  5.570749  36.710931  29.428433  4.361613  9.609039  -7.551712  1.591263  2.082667  -20.521987  4.944067  5.143571  -20.521989  4.944068  5.143571  11.336103  28.473392  20.953769  176.724033  56.22966  -149.307486  -67.353295  -38.975998  112.646947  65.026839  7.186689  -6.496083  40.028145  -1.65367  45.753567  124.093667  51.028792  30.679762  -27.498209  23.318372  -82.545851  64.952325  -4.385562  52.511305  11.246129  1.239499  0.782891  8.432698  0.944414  0.564557  
0.0  101.685394  0.0  3.622643  13.264443  -109.82806  26.493689  -15.709519  -82.098825  34.331617  42.751126  110.477325  -14.397884  -8.023489  -4.62021  -31.461551  3.861204  -16.646367  12.359191  5.279706  36.448002  29.228201  4.210896  9.703156  -7.803123  1.54823  1.809618  -21.232892  4.759175  4.397688  -21.232893  4.759175  4.397687  13.418138  28.220137  22.220155  176.694636  57.235074  -149.624166  -66.737136  -38.597257  112.173397  64.573817  6.912836  -6.225529  40.883231  -2.208598  46.559951  124.410069  51.703224  31.142494  -27.675045  23.749086  -82.834122  64.321926  -3.217168  52.313835  12.057463  1.053489  1.646681  9.040084  0.822997  1.214746  
0.0  101.685394  0.0  3.248745  13.70867  -109.455205  25.504542  -15.784136  -79.366006  33.185781  42.243762  111.035694  -14.249053  -7.626571  -4.938215  -29.544184  3.670494  -15.484817  9.822045  5.741307  35.053459  28.852917  4.102249  9.748989  -8.038777  1.507561  1.59722  -21.894779  4.594075  3.818273  -21.894779  4.594075  3.818273  15.05618  28.026408  23.031586  176.803149  58.173694  -149.783328  -65.93611  -37.940178  111.594206  64.279305  6.706296  -5.873947  41.505223  -2.565038  46.972313  124.049133  52.302196  31.102455  -27.672321  24.079041  -83.491944  63.281523  -1.644397  52.396091  12.628336  0.858251  2.224247  9.468102  0.690019  1.651251  
0.0  101.685394  0.0  2.901291  14.234129  -109.007277  24.019867  -16.218708  -76.350827  32.226112  41.313193  111.54034  -14.052589  -7.203968  -5.339209  -29.795317  3.495412  -15.762926  9.187444  5.518108  34.682138  28.753482  3.93289  9.802997  -8.252287  1.46495  1.41815  -22.492766  4.429911  3.332803  -22.492765  4.42991  3.332803  16.130861  27.939104  23.394264  176.849533  58.925513  -150.073665  -65.138385  -37.273243  111.094859  63.745274  6.465314  -5.506004  41.868284  -2.820135  47.041846  123.424562  52.68459  30.858445  -27.557698  23.805095  -84.335249  62.807467  -0.04583  52.513579  12.980679  0.669498  2.582094  9.732779  0.55729  1.923355  
0.0  101.685394  0.0  2.542504  14.757387  -108.412851  22.307837  -17.170234  -73.316662  31.634341  40.040925  112.069843  -14.069879  -6.699982  -5.738225  -29.882408  3.433858  -15.94807  8.998964  5.023307  34.498122  27.973925  3.674133  9.409819  -8.412771  1.398418  1.280955  -22.942385  4.21059  2.973642  -22.942386  4.210591  2.973642  16.518435  27.927497  23.340805  176.657699  59.41066  -150.445272  -64.539889  -36.70785  110.813698  62.8404  6.179714  -5.182669  41.883292  -2.909448  46.84874  122.673985  52.987391  30.519353  -26.98947  22.651113  -85.017404  63.412076  1.534772  52.539608  13.082962  0.52317  2.681258  9.810085  0.450046  2.000815  
0.0  101.685394  0.0  2.185152  15.280233  -107.700641  20.26037  -18.703125  -70.234753  31.622368  38.621057  112.656817  -14.197092  -6.170066  -6.091883  -30.286164  3.221926  -16.376356  8.311721  4.830859  34.002118  28.06998  3.427342  9.464885  -8.499117  1.32754  1.182777  -23.18595  3.98891  2.727342  -23.185949  3.98891  2.727342  16.165339  27.902349  22.982236  176.247403  59.761882  -150.927664  -64.104452  -36.167197  110.632596  62.18568  5.944383  -4.680537  41.377999  -2.954836  46.327768  121.666004  53.282169  29.895547  -25.903564  20.789793  -85.500353  64.558006  3.313438  52.306114  12.887464  0.361719  2.564095  9.664253  0.325552  1.916446  
0.0  101.685394  0.0  2.006223  15.409772  -107.389021  18.011118  -20.592361  -66.393556  31.850574  37.172634  113.131257  -14.238729  -5.595895  -6.376314  -30.323738  3.326795  -16.438495  7.526264  4.604603  33.463559  28.097574  3.22604  9.526317  -8.489273  1.311314  1.155489  -23.160906  3.935371  2.659951  -23.160905  3.935371  2.659951  15.562308  27.801792  22.612553  175.645591  59.500045  -151.198014  -63.699859  -35.494619  110.571438  62.421132  5.638618  -3.650136  40.638447  -3.024714  45.591983  120.752139  53.558013  29.251885  -24.634909  18.70058  -85.996254  65.49797  4.954208  51.852913  12.710885  0.213952  2.38864  9.532491  0.210268  1.787945  
0.0  101.685394  0.0  1.737447  15.82278  -106.728197  15.316206  -22.073054  -62.513991  31.71343  35.776297  113.304191  -14.179193  -4.995484  -6.604415  -30.743261  3.244608  -16.855367  6.825531  4.28484  33.04472  28.135065  3.100572  9.654705  -8.574384  1.240542  1.080473  -23.399077  3.72139  2.476927  -23.399076  3.72139  2.476927  15.162475  27.751342  22.202285  174.917085  59.477947  -151.79998  -63.565276  -35.1509  110.513853  62.031999  5.503898  -2.570716  40.319028  -2.893585  44.979381  120.326602  53.732348  28.736566  -23.91268  17.126658  -86.475451  65.818803  6.199093  51.065269  12.605519  0.190464  2.117477  9.453606  0.186631  1.584977  
